<?xml version="1.0" encoding="UTF-8" standalone="no"?>
<!-- Generator: Adobe Illustrator 19.1.0, SVG Export Plug-In . SVG Version: 6.00 Build 0)  -->

<svg
   xmlns:dc="http://purl.org/dc/elements/1.1/"
   xmlns:cc="http://creativecommons.org/ns#"
   xmlns:rdf="http://www.w3.org/1999/02/22-rdf-syntax-ns#"
   xmlns:svg="http://www.w3.org/2000/svg"
   xmlns="http://www.w3.org/2000/svg"
   xmlns:sodipodi="http://sodipodi.sourceforge.net/DTD/sodipodi-0.dtd"
   xmlns:inkscape="http://www.inkscape.org/namespaces/inkscape"
   version="1.1"
   x="0px"
   y="0px"
   width="24px"
   height="24px"
   viewBox="0 0 24 24"
   enable-background="new 0 0 24 24"
   xml:space="preserve"
   id="svg879"
   sodipodi:docname="sharp-delete_outline-24px.svg"
   inkscape:version="0.92.3 (2405546, 2018-03-11)"><metadata
   id="metadata885"><rdf:RDF><cc:Work
       rdf:about=""><dc:format>image/svg+xml</dc:format><dc:type
         rdf:resource="http://purl.org/dc/dcmitype/StillImage" /></cc:Work></rdf:RDF></metadata><defs
   id="defs883" /><sodipodi:namedview
   pagecolor="#ffffff"
   bordercolor="#666666"
   borderopacity="1"
   objecttolerance="10"
   gridtolerance="10"
   guidetolerance="10"
   inkscape:pageopacity="0"
   inkscape:pageshadow="2"
   inkscape:window-width="1920"
   inkscape:window-height="1051"
   id="namedview881"
   showgrid="false"
   inkscape:zoom="35.75"
   inkscape:cx="12"
   inkscape:cy="12"
   inkscape:window-x="-9"
   inkscape:window-y="472"
   inkscape:window-maximized="1"
   inkscape:current-layer="svg879" />
<g
   id="Header_x2F_BG"
   display="none">
	<rect
   x="-358"
   y="-270"
   display="inline"
   fill="#F1F1F2"
   width="520"
   height="520"
   id="rect851" />
</g>
<g
   id="Bounding_Boxes">
	<g
   id="ui_x5F_spec_x5F_header_copy_3">
	</g>
	<path
   fill="none"
   d="M0,0h24v24H0V0z"
   id="path855" />
</g>
<g
   id="Rounded"
   display="none">
	<g
   id="ui_x5F_spec_x5F_header_copy_5"
   display="inline">
	</g>
	<path
   display="inline"
   d="M6,19c0,1.1,0.9,2,2,2h8c1.1,0,2-0.9,2-2V9c0-1.1-0.9-2-2-2H8C6.9,7,6,7.9,6,9V19z M9,9h6   c0.55,0,1,0.45,1,1v8c0,0.55-0.45,1-1,1H9c-0.55,0-1-0.45-1-1v-8C8,9.45,8.45,9,9,9z M15.5,4l-0.71-0.71   C14.61,3.11,14.35,3,14.09,3H9.91C9.65,3,9.39,3.11,9.21,3.29L8.5,4H6C5.45,4,5,4.45,5,5v0c0,0.55,0.45,1,1,1h12c0.55,0,1-0.45,1-1   v0c0-0.55-0.45-1-1-1H15.5z"
   id="path859" />
</g>
<g
   id="Sharp"
   style="fill:#98ff98;fill-opacity:1">
	<g
   id="ui_x5F_spec_x5F_header_copy_4"
   style="fill:#98ff98;fill-opacity:1">
	</g>
	<path
   d="M6,21h12V7H6V21z M8,9h8v10H8V9z M15.5,4l-1-1h-5l-1,1H5v2h14V4H15.5z"
   id="path863"
   style="fill:#98ff98;fill-opacity:1" />
</g>
<g
   id="Outline"
   display="none">
	<g
   id="ui_x5F_spec_x5F_header"
   display="inline">
	</g>
	<path
   display="inline"
   d="M6,19c0,1.1,0.9,2,2,2h8c1.1,0,2-0.9,2-2V7H6V19z M8,9h8v10H8V9z M15.5,4l-1-1h-5l-1,1H5v2h14V4H15.5z"
   id="path867" />
</g>
<g
   id="Duotone"
   display="none">
	<g
   id="ui_x5F_spec_x5F_header_copy_2"
   display="inline">
	</g>
	<path
   display="inline"
   d="M6,19c0,1.1,0.9,2,2,2h8c1.1,0,2-0.9,2-2V7H6V19z M8,9h8v10H8V9z M15.5,4l-1-1h-5l-1,1H5v2h14V4H15.5z"
   id="path871" />
</g>
<g
   id="Fill"
   display="none">
	<g
   id="ui_x5F_spec_x5F_header_copy"
   display="inline">
	</g>
	<path
   display="inline"
   d="M6,19c0,1.1,0.9,2,2,2h8c1.1,0,2-0.9,2-2V7H6V19z M8,9h8v10H8V9z M15.5,4l-1-1h-5l-1,1H5v2h14V4H15.5z"
   id="path875" />
</g>
<g
   id="nyt_x5F_exporter_x5F_info"
   display="none">
</g>
</svg>